<svg width="1119" height="995" viewBox="0 0 1119 995" fill="none" xmlns="http://www.w3.org/2000/svg">
<path d="M129 574.208L223 578.208" stroke="#F8EDEE" stroke-width="5" stroke-linecap="round"/>
<path d="M128 574.208L4 585.208" stroke="#F8EDEE" stroke-width="5" stroke-linecap="round"/>
<path d="M3 585.208L28 701.208" stroke="#F8EDEE" stroke-width="5" stroke-linecap="round"/>
<path d="M28 701.208L131 719.208" stroke="#F8EDEE" stroke-width="5" stroke-linecap="round"/>
<path d="M131 718.208V595.208" stroke="#F8EDEE" stroke-width="5" stroke-linecap="round"/>
<path d="M131 596.208L4 586.208" stroke="#F8EDEE" stroke-width="5" stroke-linecap="round"/>
<path d="M131 596.208L223 578.208" stroke="#F8EDEE" stroke-width="5" stroke-linecap="round"/>
<path d="M225 578.208L219 670.208" stroke="#F8EDEE" stroke-width="5" stroke-linecap="round"/>
<path d="M219 670.208L131 719.208" stroke="#F8EDEE" stroke-width="5" stroke-linecap="round"/>
<path d="M130 574.208V594.208" stroke="#F8EDEE" stroke-width="5" stroke-linecap="round"/>
<path d="M56.0998 622.314L76.3043 623.564C80.9898 623.854 84.5532 627.887 84.2634 632.573L84.0784 635.563C83.7886 640.248 79.7554 643.812 75.0699 643.522L54.8654 642.272C50.18 641.983 46.6166 637.949 46.9064 633.264L47.0913 630.274C47.3811 625.588 51.4144 622.025 56.0998 622.314Z" stroke="#F8EDEE" stroke-width="3"/>
<path d="M260 441.208C242.371 469.256 194.186 522.383 142.474 510.504L70 457.047" stroke="#F8EDEE" stroke-width="5" stroke-linecap="round"/>
<path d="M260 441.208L178 414.208" stroke="#F8EDEE" stroke-width="5" stroke-linecap="round"/>
<path d="M178 414.208C162.618 428.208 119.484 456.208 70 456.208" stroke="#F8EDEE" stroke-width="5" stroke-linecap="round"/>
<path d="M214 455.208C206.889 453.541 190.533 448.208 182 440.208" stroke="#F8EDEE" stroke-width="5" stroke-linecap="round"/>
<path d="M193 473.208C188.556 472.208 178.333 468.408 173 461.208" stroke="#F8EDEE" stroke-width="5" stroke-linecap="round"/>
<path d="M169 486.208C163.333 485.208 148.4 480.608 142 466.208" stroke="#F8EDEE" stroke-width="5" stroke-linecap="round"/>
<path d="M131.719 745.208L221.5 671.708L131.5 721.708L25.5 703.208L15.5 704.708L131.719 745.208Z" fill="#F8EDEE" fill-opacity="0.3"/>
<path d="M839.584 331.925C842.211 287.186 864.765 266.79 875.713 262.185C840.504 275.685 810.243 259.037 799.513 249.026L792.944 268.106C770.347 267.053 769.515 236.087 771.924 220.735C775.64 197.05 806.214 171.654 856.663 191.129C907.112 210.603 929.359 258.018 934.176 279.291C973.064 274.554 1009.06 308.459 1022.2 326.004C1035.78 344.207 1056.49 393.902 1030.74 447.063C998.552 513.513 904.216 477.256 891.478 468.116C847.467 436.536 836.299 387.849 839.584 331.925Z" fill="#F8EDEE"/>
<path d="M769.501 313.208C769.501 320.851 771.322 327.648 774.137 332.45C776.987 337.311 780.559 339.708 784.001 339.708C787.443 339.708 791.016 337.311 793.865 332.45C796.68 327.648 798.501 320.851 798.501 313.208C798.501 305.565 796.68 298.768 793.865 293.966C791.016 289.105 787.443 286.708 784.001 286.708C780.559 286.708 776.987 289.105 774.137 293.966C771.322 298.768 769.501 305.565 769.501 313.208Z" stroke="#F8EDEE" stroke-width="5"/>
<path d="M782.501 318.208C781.12 318.208 780.001 316.193 780.001 313.708C780.001 311.223 781.12 309.208 782.501 309.208C783.882 309.208 785.001 311.223 785.001 313.708C785.001 316.193 783.882 318.208 782.501 318.208Z" fill="#F8EDEE"/>
<path d="M840.001 328.208L798.001 318.208" stroke="#F8EDEE" stroke-width="5" stroke-linecap="round"/>
<path d="M788.58 268.208C784.003 274.783 771.304 288.751 759.158 295.823C746.735 303.055 744.12 314.232 750.004 323.437L759.158 337.902C752.62 347.984 742.289 373.275 753.274 393.789M798.388 477.291C799.259 469.181 795.903 449.939 775.504 437.841M869.001 483.208V449.676" stroke="#F8EDEE" stroke-width="5" stroke-linecap="round"/>
<path d="M816.501 368.208C815.12 368.208 814.001 367.089 814.001 365.708C814.001 364.327 815.12 363.208 816.501 363.208C817.882 363.208 819.001 364.327 819.001 365.708C819.001 367.089 817.882 368.208 816.501 368.208Z" fill="#F8EDEE"/>
<path d="M822.001 392.208C820.344 392.208 819.001 391.089 819.001 389.708C819.001 388.327 820.344 387.208 822.001 387.208C823.658 387.208 825.001 388.327 825.001 389.708C825.001 391.089 823.658 392.208 822.001 392.208Z" fill="#F8EDEE"/>
<path d="M792.001 401.208C790.479 404.891 785.349 412.648 777.001 414.208" stroke="#F8EDEE" stroke-width="5" stroke-linecap="round"/>
<path d="M801.001 385.208C799.344 385.208 798.001 384.089 798.001 382.708C798.001 381.327 799.344 380.208 801.001 380.208C802.658 380.208 804.001 381.327 804.001 382.708C804.001 384.089 802.658 385.208 801.001 385.208Z" fill="#F8EDEE"/>
<path d="M749.049 465.931L739.868 463.303C736.151 461.77 729.113 461.2 730.686 471.188C732.26 481.176 760.022 482.358 761.509 471.188C762.053 467.098 761.942 461.174 760.164 455.418M760.164 455.418C757.657 447.303 751.837 439.521 739.868 437.676M760.164 455.418C765.476 453.14 771.887 447.576 768.149 439.648M768.149 439.648C766.496 436.141 762.858 432.172 756.263 427.82M768.149 439.648C774.024 436.362 779.346 426.243 753.64 412.05M737.901 414.021C747.737 413.364 768.329 409.684 772.002 400.222C775.674 390.76 763.913 389.709 757.574 390.366C749.486 391.68 729.638 397.857 714.948 412.05C696.586 429.791 655.271 475.788 635.598 517.184C619.859 550.302 593.19 594.064 581.823 611.805C559.308 646.85 523.458 719.568 617.891 722.197C642.155 722.872 677.568 693.547 714.292 670.943" stroke="#F8EDEE" stroke-width="5" stroke-linecap="round"/>
<path d="M969.02 835.441C968.583 852.44 975.704 887.631 1007.68 892.399C1039.66 897.168 1079.55 897.477 1095.49 897.036C1105.76 897.919 1123.54 895.843 1112.53 880.478C1101.52 865.112 1083.91 862.596 1076.49 863.258C1056.61 864.583 1016.99 857.827 1017.51 820.208" stroke="#F8EDEE" stroke-width="5" stroke-linecap="round"/>
<path d="M353.001 843.208C346.194 842.111 328.758 834.517 321.379 818.189C312.156 797.778 293.051 789.219 286.463 797.119C281.193 803.44 283.389 807.654 283.828 808.971" stroke="#F8EDEE" stroke-width="5" stroke-linecap="round"/>
<path d="M535.81 829.391C613.745 824.161 645.077 799.757 651.001 788.208C638.495 906.527 321.883 879.071 329.123 865.344C334.916 854.362 343.385 846.823 346.896 844.426C400.871 810.434 438.391 835.928 535.81 829.391Z" fill="#F8EDEE"/>
<path d="M806.238 977.996C899.146 963.363 929.624 908.894 925.665 882.473C903.23 948.187 756.741 955.64 695.382 908.894C650.194 874.468 648.972 807.274 651.831 782.208C639.954 818.791 614.051 827.661 577.267 844.535C546.253 858.762 423.74 856.278 364.132 851.31C334.439 848.835 306.905 870.373 324.541 929.218C350.935 1017.29 690.103 996.288 806.238 977.996Z" fill="#F8EDEE"/>
<path d="M730.356 465.208C724.225 478.346 711.831 513.555 711.306 549.289L757.288 493.454C765.39 484.258 787.374 468.624 810.497 479.659L872.902 486.228C921.95 558.923 1021.36 714.167 1026.61 753.58C1031.87 792.993 1020.92 814.67 1014.79 820.582C1003.19 831.749 973.275 847.383 946.474 820.582C941.146 815.255 936.751 810.202 933.142 805.474M933.142 805.474C918.597 786.419 921.512 775.914 918.884 764.09M933.142 805.474C938.9 844.011 929.395 923.582 845.312 933.566C761.229 943.551 709.992 922.837 694.883 911.232C677.585 896.562 644.302 851.193 649.557 787.081L677.804 696.431" stroke="#F8EDEE" stroke-width="5" stroke-linecap="round"/>
<path d="M308.691 848.39C312.357 868.299 318.946 875.241 323.746 877.205C315.891 914.534 330.946 944.004 346.001 951.208C335.092 949.898 309.215 945.052 292.982 936.146C276.748 927.239 269.635 910.168 268.108 902.746C264.835 884.627 258.682 843.02 260.253 821.539C261.824 800.059 275.745 804.294 282.509 809.097C289.709 813.899 305.026 828.481 308.691 848.39Z" stroke="#F8EDEE" stroke-width="5"/>
<path d="M583.347 152.953C583.075 150.775 585.536 144.677 592.572 146.147C598.813 147.452 600.17 154.314 595.829 158.398C593.386 160.95 590.076 165.258 590.944 169.832" stroke="#F8EDEE" stroke-opacity="0.6" stroke-width="5" stroke-linecap="round"/>
<path d="M617.808 153.345C619.795 136.965 608.149 135.821 602.078 137.297C591.481 124.458 582.208 131.947 578.897 137.297C562.56 135.305 561.051 147.166 562.339 153.345C550.859 162.643 557.555 172.53 562.339 176.311C559.91 192.249 572.55 194.204 579.173 193.19C588.666 205.586 598.398 197.986 602.078 192.637C617.753 194.629 619.096 182.583 617.808 176.311C630.834 166.572 623.235 156.943 617.808 153.345Z" stroke="#F8EDEE" stroke-opacity="0.6" stroke-width="5"/>
<path d="M588.928 178.877C589.584 180.081 591.092 180.526 592.296 179.871C593.501 179.215 593.946 177.707 593.29 176.502C592.635 175.298 591.127 174.853 589.922 175.508C588.717 176.164 588.272 177.672 588.928 178.877Z" fill="#F8EDEE"/>
<path d="M592.851 176.742C593.375 177.704 593.019 178.908 592.057 179.432C591.095 179.955 589.891 179.6 589.367 178.638C588.843 177.676 589.199 176.471 590.161 175.948C591.123 175.424 592.328 175.779 592.851 176.742Z" stroke="#F8EDEE" stroke-opacity="0.6"/>
<path d="M1022.59 170.998C1022.37 169.198 1024.4 164.161 1030.21 165.375C1035.37 166.453 1036.49 172.122 1032.9 175.495C1030.88 177.603 1028.15 181.163 1028.87 184.941" stroke="#F8EDEE" stroke-opacity="0.3" stroke-width="5" stroke-linecap="round"/>
<path d="M1051.06 171.322C1052.7 157.79 1043.08 156.845 1038.06 158.064C1029.31 147.458 1021.65 153.645 1018.91 158.064C1005.42 156.418 1004.17 166.217 1005.24 171.322C995.753 179.002 1001.28 187.17 1005.24 190.293C1003.23 203.459 1013.67 205.075 1019.14 204.237C1026.98 214.477 1035.02 208.199 1038.06 203.779C1051.01 205.425 1052.12 195.474 1051.06 190.293C1061.82 182.248 1055.54 174.293 1051.06 171.322Z" stroke="#F8EDEE" stroke-opacity="0.3" stroke-width="5"/>
<path d="M1027.2 192.413C1027.74 193.408 1028.99 193.775 1029.98 193.234C1030.98 192.692 1031.35 191.446 1030.81 190.451C1030.26 189.456 1029.02 189.088 1028.02 189.63C1027.03 190.172 1026.66 191.417 1027.2 192.413Z" fill="#F8EDEE"/>
<path d="M1030.37 190.691C1030.78 191.443 1030.5 192.385 1029.74 192.794C1028.99 193.204 1028.05 192.926 1027.64 192.174C1027.23 191.421 1027.51 190.479 1028.26 190.069C1029.01 189.66 1029.96 189.938 1030.37 190.691Z" stroke="#F8EDEE" stroke-opacity="0.3"/>
<path d="M809.236 35.6345C808.847 32.5097 812.378 23.7596 822.473 25.8694C831.428 27.7411 833.374 37.5875 827.145 43.4465C823.641 47.1077 818.892 53.2897 820.137 59.8519" stroke="#F8EDEE" stroke-width="5" stroke-linecap="round"/>
<path d="M858.681 36.1972C861.532 12.6947 844.823 11.0538 836.112 13.1711C820.907 -5.24975 807.603 5.49576 802.852 13.1711C779.412 10.3127 777.247 27.3309 779.095 36.1972C762.623 49.5365 772.231 63.7227 779.095 69.1484C775.611 92.0157 793.745 94.8209 803.248 93.3655C816.869 111.151 830.832 100.247 836.112 92.5715C858.602 95.4299 860.528 78.147 858.681 69.1484C877.37 55.1739 866.468 41.3582 858.681 36.1972Z" stroke="#F8EDEE" stroke-width="5"/>
<path d="M817.244 72.828C818.185 74.5564 820.349 75.195 822.077 74.2543C823.806 73.3136 824.444 71.1499 823.504 69.4215C822.563 67.6931 820.399 67.0546 818.671 67.9952C816.942 68.9359 816.304 71.0996 817.244 72.828Z" fill="#F8EDEE"/>
</svg>
