<svg width="1000" height="268" viewBox="0 0 1000 268" fill="none" xmlns="http://www.w3.org/2000/svg">
<path fill-rule="evenodd" clip-rule="evenodd" d="M61.9577 64.8971L62.8553 87.7616C63.6826 86.8111 65.9356 79.5945 69.2623 74.0148C75.4581 63.6298 84.8221 54.741 94.8375 48.0524C96.2104 47.1371 100.048 44.6553 101.385 44.2856C100.998 39.674 96.404 34.7632 93.2533 32.7038C85.2446 27.4761 72.149 28.6026 62.3977 28.6026C62.4153 41.2406 61.9577 52.4176 61.9577 64.8971ZM43.5816 207.417C19.1154 207.417 14.5741 201.239 10.4201 201.151C10.4201 219.457 7.72712 226.867 21.4388 235.844C30.6092 241.846 40.4837 241.934 51.2031 241.934C62.3273 241.934 71.5153 238.942 78.996 235.21C87.0047 231.232 92.3908 226.057 97.3721 218.63C103.233 221.727 105.909 226.533 122.666 233.239C145.935 242.55 179.149 243.606 201.345 230.264C212.275 223.699 218.841 214.124 218.841 200.253V188.601C218.841 184.324 212.944 191.013 212.839 191.101C192.966 206.572 156.302 211.73 132.487 198.317C124.25 193.67 117.456 187.228 112.932 178.885C110.908 175.154 109.517 172.478 107.898 168.236C103.638 157.094 103.233 146.762 103.233 134.353C103.233 114.041 112.245 97.4425 127.682 85.755C130.111 83.9245 134.054 81.5482 137.029 80.3161C148.434 75.5813 152.852 74.754 165.966 74.754C178.903 74.754 193.248 78.6088 203.017 83.8717C207.4 86.2303 213.226 90.0322 216.148 94.0454C217.151 95.4183 217.01 95.7704 219.298 95.8232C219.298 84.699 220.407 71.6033 214.916 62.5737C213.279 59.8807 212.504 58.4902 210.234 56.0435C204.636 50.0062 197.191 46.0458 188.918 43.74C175.013 39.8676 156.179 39.586 141.728 42.4551C136.465 43.4936 132.611 44.5849 127.928 46.1338C120.501 48.598 110.82 53.2977 104.571 57.7333L94.8199 65.4604C89.1345 71.0929 87.4448 72.8355 82.6219 79.2424L75.7573 90.2962C75.1765 91.4579 74.6484 92.2676 74.1908 93.2181C69.632 102.811 65.5836 112.809 65.5836 124.056C65.5836 135.462 66.4109 186.26 64.7915 193.178C62.3097 203.598 54.829 207.417 43.5816 207.417ZM0 0H181.437C215.76 0 243.835 28.0746 243.835 62.3977V267.844H0V0Z" fill="white"/>
<path fill-rule="evenodd" clip-rule="evenodd" d="M716.033 160.403C713.376 162.005 709.398 162.744 704.082 162.744C691.356 162.744 685.055 155.369 685.055 140.514V109.324H675.215V94.8375H685.055V80.2282L702.427 74.7012V94.8375H716.033V109.324H702.427V137.187C702.427 144.316 704.856 147.871 709.943 147.871C711.932 147.871 713.921 147.132 716.033 145.9V160.403ZM638.023 131.062C631.722 132.047 628.624 135.11 628.624 140.514C628.624 143.083 629.398 145.055 630.947 146.533C632.391 148.135 634.485 148.874 637.037 148.874C640.681 148.874 643.568 147.396 645.891 144.703C648.214 141.887 649.323 138.437 649.323 134.265V129.477L638.023 131.062ZM618.327 98.8859C620.985 97.1609 624.628 95.8232 629.169 94.7143C633.711 93.7286 637.583 93.2357 640.786 93.2357C657.49 93.2357 665.798 102.441 665.798 121.117V161.143H649.2V151.444H648.971C644.993 159.048 639.009 162.744 631.158 162.744C625.508 162.744 620.985 161.02 617.552 157.341C614.12 153.785 612.466 148.998 612.466 142.731C612.466 130.094 619.33 122.718 632.936 120.624L649.306 118.16C649.306 110.433 645.768 106.613 638.463 106.613C631.387 106.613 624.628 108.954 618.327 113.742V98.8859ZM603.841 157.834C597.751 161.143 589.795 162.744 580.061 162.744C567.441 162.744 557.372 158.573 549.962 150.212C542.658 141.869 538.891 130.692 538.891 116.699C538.891 102.089 542.992 90.0498 551.282 80.721C559.573 71.3921 570.204 66.7277 583.264 66.7277C591.449 66.7277 598.314 67.8366 603.841 70.2833V89.3106C598.191 85.6319 591.784 83.9069 584.585 83.9069C576.4 83.9069 569.87 86.7231 564.994 92.4965C560.118 98.393 557.689 105.874 557.689 115.203C557.689 124.408 560.013 131.66 564.66 137.31C569.306 142.837 575.502 145.53 583.476 145.53C590.886 145.53 597.751 143.559 603.841 139.634V157.834ZM498.847 160.403C496.189 162.005 492.211 162.744 486.896 162.744C474.17 162.744 467.868 155.369 467.868 140.514V109.324H458.029V94.8375H467.868V80.2282L485.241 74.7012V94.8375H498.847V109.324H485.241V137.187C485.241 144.316 487.67 147.871 492.757 147.871C494.746 147.871 496.735 147.132 498.847 145.9V160.403ZM407.46 143.348C413.427 147.396 419.305 149.367 424.938 149.367C432.243 149.367 435.781 147.273 435.781 142.978C435.781 139.915 432.788 137.451 426.821 135.374C419.411 132.804 414.324 129.97 411.561 126.784C408.797 123.722 407.46 119.409 407.46 114.146C407.46 107.634 409.783 102.477 414.535 98.7979C419.288 95.1191 425.484 93.2709 433.228 93.2709C438.755 93.2709 443.965 94.1334 449.052 95.964V111.189C444.405 108.127 439.319 106.648 433.668 106.648C430.905 106.648 428.687 107.141 427.033 108.25C425.378 109.359 424.48 110.82 424.48 112.545C424.48 115.607 427.033 118.072 431.996 119.92C437.418 122.014 441.519 123.845 444.159 125.447C446.922 127.048 449.035 129.249 450.46 131.959C451.78 134.547 452.555 137.733 452.555 141.165C452.555 148.047 450.126 153.328 445.145 157.13C440.163 160.932 433.633 162.78 425.343 162.78C418.918 162.78 412.951 161.671 407.424 159.347V143.348H407.46ZM393.185 161.143H375.812V150.951H375.583C371.042 158.802 364.969 162.744 357.225 162.744C343.284 162.744 336.42 153.416 336.42 134.864V94.8375H353.792V133.015C353.792 142.96 357.33 147.871 364.301 147.871C367.838 147.871 370.602 146.516 372.714 143.823C374.809 141.13 375.812 137.433 375.812 132.769V94.8199H393.185V161.143ZM320.49 124.672C320.49 136.958 317.938 146.41 312.851 152.905C307.764 159.418 300.459 162.727 290.937 162.727C286.73 162.727 282.858 161.988 279.214 160.386V141.728C282.312 144.298 285.85 145.53 289.828 145.53C298.347 145.53 302.66 138.401 302.66 123.915V68.2943H320.472V124.672H320.49Z" fill="white"/>
<path fill-rule="evenodd" clip-rule="evenodd" d="M828.596 112.404C826.501 111.049 823.949 110.309 820.851 110.309C816.873 110.309 813.775 112.034 811.452 115.343C809.128 118.776 808.019 123.317 808.019 129.213V161.143H790.541V94.8375H808.019V107.247H808.248C811.117 98.2874 816.327 93.7462 823.966 93.7462C825.955 93.7462 827.504 93.9926 828.613 94.4854V112.404H828.596ZM762.871 121.363C762.871 111.418 759.333 106.507 752.029 106.507C749.036 106.507 746.378 107.863 744.055 110.556C741.837 113.249 740.412 116.822 739.743 121.363H762.871ZM779.135 133.385H739.866C740.411 143.7 746.062 148.857 756.57 148.857C763.206 148.857 768.961 147.009 774.048 143.453V157.693C768.627 161.002 761.428 162.727 752.697 162.727C743.175 162.727 735.765 159.787 730.467 153.768C725.151 147.871 722.616 139.528 722.616 128.967C722.616 118.283 725.38 109.693 731.03 103.181C736.68 96.5448 743.65 93.2357 752.169 93.2357C760.689 93.2357 767.324 96.052 772.077 101.702C776.829 107.475 779.153 115.203 779.153 125.147V133.385H779.135Z" fill="white"/>
<path fill-rule="evenodd" clip-rule="evenodd" d="M982.75 123.687C982.75 119.268 981.536 115.59 979.212 112.633C976.783 109.57 973.791 108.092 970.148 108.092C965.835 108.092 962.509 109.94 960.08 113.618C957.527 117.297 956.313 122.454 956.313 129.213C956.313 134.987 957.527 139.528 959.956 142.837C962.28 146.146 965.378 147.871 969.356 147.871C973.333 147.871 976.555 146.146 978.984 142.837C981.536 139.405 982.75 134.987 982.75 129.583V123.687ZM1000 153.768C1000 166.177 996.796 175.629 990.477 182.247C984.176 188.883 975.094 192.315 963.142 192.315C955.063 192.315 948.656 190.96 943.886 188.39V171.809C950.082 175.858 956.383 177.829 962.702 177.829C968.898 177.829 973.774 175.981 977.311 172.302C980.849 168.623 982.627 163.466 982.627 156.954V151.427H982.293C978.086 158.925 971.785 162.727 963.477 162.727C955.961 162.727 949.976 159.787 945.435 153.768C940.894 147.871 938.694 139.898 938.694 129.953C938.694 118.776 941.123 109.816 946.104 103.181C951.085 96.5448 957.721 93.2357 965.8 93.2357C973.105 93.2357 978.632 96.4216 982.293 102.688H982.627V94.8375H1000V153.768ZM927.323 161.143H909.95V124.179C909.95 113.372 906.518 108.092 899.548 108.092C896.221 108.092 893.457 109.447 891.257 112.386C889.163 115.203 888.054 118.899 888.054 123.317V161.143H870.575V94.8375H888.054V105.398H888.283C892.595 97.3017 899.02 93.2357 907.415 93.2357C920.687 93.2357 927.323 102.318 927.323 120.501V161.143ZM837.484 161.143V94.8375H854.963V161.143H837.484ZM836.252 73.4691C836.252 70.4064 837.132 68.0654 839.016 66.2173C840.899 64.3691 843.328 63.401 846.32 63.401C849.313 63.401 851.742 64.3867 853.625 66.2173C855.508 68.1886 856.494 70.5121 856.494 73.4691C856.494 76.2854 855.491 78.7496 853.625 80.721C851.742 82.6924 849.313 83.6604 846.32 83.6604C843.451 83.6604 841.005 82.6748 839.121 80.721C837.15 78.7496 836.252 76.303 836.252 73.4691Z" fill="white"/>
<path fill-rule="evenodd" clip-rule="evenodd" d="M276.169 250.735L281.291 248.288C284.9 253.516 289.106 256.156 293.806 256.156C295.83 256.156 297.749 255.751 299.526 255.03C301.287 254.308 302.642 253.305 303.557 252.055C304.561 250.805 304.983 249.485 304.983 248.095C304.983 246.51 304.314 244.926 302.959 243.395C301.023 241.283 297.59 238.766 292.539 235.791C287.505 232.816 284.389 230.634 283.122 229.314C281.027 227.061 279.936 224.614 279.936 222.044C279.936 220.003 280.605 218.084 281.872 216.429C283.139 214.704 284.9 213.384 287.17 212.399C289.441 211.413 291.958 210.938 294.651 210.938C297.502 210.938 300.195 211.466 302.624 212.592C305.141 213.719 307.746 215.76 310.528 218.665L305.564 221.639C303.293 219.263 301.357 217.679 299.773 216.94C298.171 216.218 296.411 215.813 294.475 215.813C292.046 215.813 290.022 216.412 288.508 217.538C286.906 218.735 286.149 220.108 286.149 221.833C286.149 222.889 286.396 223.875 286.994 224.878C287.505 225.811 288.508 226.867 290.022 227.976C290.779 228.574 293.384 230.159 297.837 232.728C303.047 235.774 306.655 238.484 308.591 240.86C310.527 243.166 311.531 245.56 311.531 248.007C311.531 251.439 309.859 254.414 306.567 256.931C303.205 259.501 299.174 260.768 294.387 260.768C290.779 260.768 287.417 259.976 284.389 258.462C281.45 256.948 278.686 254.308 276.169 250.735Z" fill="white"/>
<path fill-rule="evenodd" clip-rule="evenodd" d="M386.32 228.064C381.532 228.064 377.414 229.455 373.964 232.236C370.514 234.946 368.842 238.308 368.842 242.216C368.842 244.786 369.598 247.109 371.2 249.292C372.802 251.474 374.897 253.199 377.502 254.378C380.195 255.575 383.134 256.156 386.32 256.156C389.435 256.156 392.375 255.558 395.05 254.378C397.655 253.181 399.838 251.474 401.352 249.292C402.953 247.109 403.71 244.803 403.71 242.216C403.71 238.308 402.038 234.946 398.588 232.236C395.138 229.455 391.02 228.064 386.32 228.064ZM386.32 223.646C393.202 223.646 398.923 225.565 403.464 229.525C407.583 233.028 409.589 237.252 409.589 242.145C409.589 247.038 407.407 251.333 403.041 254.959C398.764 258.603 393.132 260.451 386.32 260.451C379.438 260.451 373.805 258.603 369.528 254.959C365.163 251.316 362.98 247.021 362.98 242.145C362.98 237.322 365.075 233.098 369.194 229.525C373.629 225.635 379.438 223.646 386.32 223.646Z" fill="white"/>
<path fill-rule="evenodd" clip-rule="evenodd" d="M480.506 211.026V215.391C478.412 214.669 476.564 214.335 475.05 214.335C473.958 214.335 473.026 214.528 472.286 214.863C471.529 215.197 471.019 215.585 470.861 216.06C470.685 216.517 470.614 217.785 470.614 219.756V224.509H479.943V228.416H470.544V259.606H464.823V228.416H458.944V224.509H464.823V219.017C464.823 216.5 465.158 214.722 465.739 213.666C466.319 212.61 467.34 211.747 468.678 211.096C470.104 210.427 471.794 210.11 473.8 210.11C475.631 210.093 477.901 210.357 480.506 211.026Z" fill="white"/>
<path fill-rule="evenodd" clip-rule="evenodd" d="M535.212 211.413H540.933V224.509H549.997V228.398H540.933V259.588H535.212V228.398H527.415V224.509H535.212V211.413Z" fill="white"/>
<path fill-rule="evenodd" clip-rule="evenodd" d="M594.547 224.508H600.514L614.12 249.943L628.307 224.508H629.398L643.691 249.943L657.543 224.508H663.422L644.184 259.588H643.004L628.905 234.489L614.613 259.588H613.522L594.547 224.508Z" fill="white"/>
<path fill-rule="evenodd" clip-rule="evenodd" d="M733.688 228.011C730.502 228.011 727.562 228.61 724.869 229.859C722.176 231.056 720.082 232.834 718.48 235.017C716.878 237.27 716.051 239.646 716.051 242.092C716.051 244.539 716.896 246.915 718.48 249.168C720.082 251.421 722.264 253.199 724.94 254.396C727.633 255.646 730.572 256.315 733.67 256.315C736.786 256.315 739.796 255.716 742.577 254.466C745.34 253.217 747.54 251.562 749.036 249.38C750.55 247.267 751.307 244.891 751.307 242.233C751.307 238.203 749.635 234.823 746.185 232.13C742.841 229.331 738.634 228.011 733.688 228.011ZM756.693 224.508V259.606H750.972V253.586C748.543 255.839 745.85 257.617 742.911 258.744C739.884 259.87 736.61 260.469 733.089 260.469C726.788 260.469 721.419 258.691 716.966 255.047C712.513 251.474 710.242 247.109 710.242 241.969C710.242 236.953 712.513 232.588 717.054 229.014C721.507 225.441 726.964 223.664 733.265 223.664C736.962 223.664 740.235 224.262 743.175 225.441C746.114 226.691 748.719 228.486 750.99 230.986V224.508H756.693Z" fill="white"/>
<path fill-rule="evenodd" clip-rule="evenodd" d="M809.339 224.508H815.218V229.666C816.978 227.624 818.827 226.093 820.763 225.107C822.699 224.121 824.706 223.646 826.818 223.646C828.419 223.646 830.18 224.051 831.94 224.843L828.912 228.61C827.733 228.205 826.73 228.011 825.885 228.011C823.949 228.011 822.101 228.61 820.34 229.859C818.58 231.109 817.225 233.028 816.31 235.615C815.553 237.604 815.218 241.635 815.218 247.707V259.606H809.339V224.508Z" fill="white"/>
<path fill-rule="evenodd" clip-rule="evenodd" d="M916.375 238.519C915.618 236.073 914.527 234.154 913.013 232.764C911.499 231.303 909.563 230.123 907.134 229.261C904.775 228.398 902.17 227.941 899.565 227.941C895.112 227.941 891.328 229.067 888.142 231.25C885.871 232.904 884.111 235.281 882.932 238.519H916.375ZM916.287 247.971L921.162 249.96C919.561 252.407 917.712 254.396 915.618 255.91C913.594 257.371 911.253 258.48 908.648 259.289C906.043 260.081 903.103 260.486 899.741 260.486C892.437 260.486 886.804 258.638 882.685 254.871C878.566 251.104 876.472 246.88 876.472 242.18C876.472 237.745 878.232 233.785 881.682 230.282C886.135 225.846 892.014 223.664 899.495 223.664C907.046 223.664 913.189 225.917 917.73 230.475C921.004 233.644 922.606 237.622 922.694 242.445H882.351C882.439 246.475 884.111 249.855 887.314 252.425C890.588 254.994 894.531 256.332 899.248 256.332C901.519 256.332 903.79 255.998 905.972 255.399C908.067 254.801 909.915 253.938 911.429 252.953C912.925 251.861 914.597 250.207 916.287 247.971Z" fill="white"/>
<path d="M928.89 176.016H278.299V187.123H928.89V176.016Z" fill="white"/>
</svg>
