<svg width="200" height="220" viewBox="0 0 200 220" fill="none" xmlns="http://www.w3.org/2000/svg">
<path fill-rule="evenodd" clip-rule="evenodd" d="M50.8193 53.3049L51.5556 72.0852C52.2342 71.3045 54.0822 65.3769 56.8108 60.7939C61.8927 52.2639 69.5734 44.9629 77.7882 39.469C78.9143 38.7172 82.0616 36.6787 83.1589 36.3751C82.8413 32.5872 79.0731 28.5536 76.4889 26.8621C69.9199 22.5682 59.1785 23.4935 51.1803 23.4935C51.1947 33.874 50.8193 43.0545 50.8193 53.3049ZM35.7468 170.367C15.6789 170.367 11.9541 165.293 8.54688 165.22C8.54688 180.256 6.33799 186.343 17.5846 193.716C25.1065 198.646 33.2058 198.719 41.9981 198.719C51.1225 198.719 58.6588 196.261 64.7946 193.196C71.3636 189.928 75.7814 185.678 79.8672 179.577C84.6748 182.121 86.8693 186.068 100.614 191.577C119.7 199.225 146.943 200.092 165.148 189.133C174.114 183.741 179.499 175.876 179.499 164.483V154.912C179.499 151.399 174.663 156.893 174.576 156.965C158.276 169.673 128.203 173.909 108.67 162.893C101.913 159.076 96.3401 153.785 92.6298 146.932C90.9695 143.867 89.8289 141.669 88.5007 138.185C85.0069 129.033 84.6748 120.547 84.6748 110.354C84.6748 93.6702 92.0667 80.0368 104.728 70.437C106.721 68.9334 109.955 66.9817 112.394 65.9696C121.75 62.0806 125.374 61.4011 136.129 61.4011C146.741 61.4011 158.507 64.5673 166.52 68.8901C170.115 70.8274 174.894 73.9502 177.29 77.2465C178.113 78.3742 177.998 78.6634 179.874 78.7067C179.874 69.5696 180.784 58.8132 176.279 51.3965C174.937 49.1845 174.302 48.0423 172.439 46.0327C167.848 41.0738 161.741 37.8209 154.956 35.9269C143.55 32.7463 128.102 32.515 116.249 34.8715C111.932 35.7245 108.771 36.6209 104.93 37.8932C98.8378 39.9172 90.8973 43.7774 85.772 47.4207L77.7738 53.7675C73.1105 58.3939 71.7245 59.8252 67.7687 65.0877L62.1382 74.1671C61.6617 75.1212 61.2286 75.7863 60.8533 76.567C57.114 84.4464 53.7934 92.6582 53.7934 101.897C53.7934 111.265 54.472 152.989 53.1437 158.671C51.1081 167.23 44.9722 170.367 35.7468 170.367ZM0 0H148.82C176.972 0 200 23.0598 200 51.2519V220H0V0Z" fill="white"/>
</svg>
