<svg width="512" height="512" viewBox="0 0 512 512" fill="none" xmlns="http://www.w3.org/2000/svg">
<path d="M56.8725 502.843C53.1157 488.521 48.9325 474.293 45.8018 459.838C44.3763 453.257 41.0591 451.539 35.0507 451.099C23.3938 450.233 11.7768 448.674 0 446.236C12.4563 441.8 24.8193 437.071 37.4088 433.047C42.6844 431.355 44.8692 428.305 46.7343 423.282C56.313 397.544 57.3122 370.326 61.0424 343.602C67.85 294.869 74.1781 246.057 80.5461 197.271C84.4495 167.363 88.0731 137.414 91.8433 107.493C92.203 104.682 92.7892 101.897 93.3487 98.6732C109.708 98.6732 125.628 98.7132 141.562 98.6599C150.727 98.6332 154.844 95.9421 156.896 87.1362C169.019 35.2728 225.385 -1.723 287.067 13.4244C327.007 23.2428 352.706 47.6225 364.203 87.0962C367.307 97.7406 368.945 98.6465 380.269 98.4734C395.55 98.2336 410.844 98.4201 426.99 98.4201C428.242 107.532 429.521 116.432 430.68 125.344C435.57 162.726 440.579 200.082 445.255 237.491C451.29 285.677 457.005 333.903 462.934 382.117C466.078 407.615 469.355 433.114 472.605 458.599C473.325 464.248 471.66 465.82 465.918 465.753C430.694 465.327 395.47 464.874 360.246 464.741C314.777 464.581 269.309 464.741 223.84 464.714C173.935 464.688 124.03 464.621 74.1248 464.581C68.5028 464.581 65.3321 466.646 64.4928 472.974C63.1473 483.019 60.6827 492.904 58.6843 502.856C58.0848 502.842 57.472 502.843 56.8725 502.843ZM461.095 461.757C459.71 457.121 458.67 453.803 457.725 450.46C425.298 336.914 392.832 223.369 360.632 109.757C358.74 103.083 356.223 100.791 349.015 100.818C268.509 101.124 188.003 101.005 107.497 101.018C105.285 101.018 103.061 101.031 100.849 101.124C97.5319 101.258 95.8533 102.643 95.4004 106.32C90.6843 144.395 85.7551 182.443 80.9324 220.505C74.7776 269.131 68.8758 317.784 62.4279 366.356C60.3629 381.903 59.1373 397.037 65.6918 411.918C67.8234 416.741 69.1423 422.017 70.0882 427.226C71.1006 432.888 74.2713 435.166 79.5869 436.458C91.9233 439.455 104.126 443.052 116.383 446.41C102.701 450.14 89.0323 452.524 75.4304 455.309C72.6061 455.882 70.0748 457.933 67.3971 459.292C70.248 460.118 73.099 461.65 75.9499 461.664C201.259 461.783 326.554 461.77 451.863 461.77C454.501 461.757 457.138 461.757 461.095 461.757ZM465.331 439.735C465.838 439.722 466.357 439.709 466.864 439.695C463.08 409.8 459.297 379.905 455.513 350.023C449.971 306.233 444.376 262.456 438.887 218.666C434.304 182.137 429.815 145.594 425.392 109.038C424.819 104.322 423.247 102.137 417.931 102.284C403.53 102.67 389.102 102.39 374.687 102.443C372.809 102.443 370.944 102.79 367.56 103.123C400.332 215.909 432.839 327.815 465.331 439.735ZM260.662 99.699C280.366 99.699 300.083 99.3926 319.786 99.7923C335.986 100.112 336.559 97.2211 328.952 83.6191C312.859 54.8298 287.533 42.3602 254.854 44.625C224.892 46.7032 203.963 61.824 191.533 89.0013C187.59 97.6474 188.816 99.6324 198.221 99.6724C219.03 99.7523 239.853 99.699 260.662 99.699ZM59.0307 412.798C58.5112 412.731 57.9916 412.651 57.472 412.585C55.6469 418.206 53.462 423.735 52.1165 429.464C50.8509 434.873 47.9067 437.657 42.6444 439.109C36.4496 440.814 30.4679 443.292 24.393 445.424C31.0541 447.395 37.3821 448.128 43.7235 448.674C47.7468 449.021 49.9849 450.673 50.9175 454.949C52.676 463.009 55.074 470.936 57.2056 478.916C60.0299 472.188 61.4021 465.527 62.4412 458.799C63.1606 454.083 64.9591 451.432 70.288 450.873C77.5886 450.1 84.7692 448.235 92.0032 446.836C85.502 443.972 79.0007 441.947 72.3796 440.401C68.223 439.442 65.9583 437.364 64.9058 433.167C63.2272 426.306 61.0291 419.579 59.0307 412.798Z" fill="#F8EDEE"/>
<path d="M511.999 345.813C512.106 358.829 501.661 369.527 488.592 369.78C475.59 370.046 464.772 359.575 464.546 346.506C464.319 333.024 474.857 322.259 488.246 322.259C501.421 322.273 511.893 332.651 511.999 345.813ZM488.033 325.803C476.709 325.87 468.023 334.729 468.076 346.173C468.129 357.39 477.215 366.329 488.446 366.223C499.676 366.116 508.522 357.084 508.442 345.773C508.389 334.542 499.396 325.75 488.033 325.803Z" fill="#F8EDEE"/>
<path d="M66.1983 244.977C66.1983 258.18 55.8603 268.584 42.6713 268.638C29.5356 268.704 18.8645 258.353 18.6647 245.337C18.4515 232.121 29.3891 221.144 42.6447 221.277C55.807 221.41 66.185 231.855 66.1983 244.977ZM62.7612 245.284C62.8944 234.106 53.9019 224.834 42.7912 224.674C31.6672 224.528 22.3416 233.573 22.1951 244.658C22.0485 255.848 30.9877 265.054 42.1784 265.227C53.3557 265.4 62.628 256.421 62.7612 245.284Z" fill="#F8EDEE"/>
<path d="M172.443 354.194C178.545 320.155 220.497 292.525 261.862 294.297C305.053 296.149 350.615 334.104 354.718 372.525C351.521 367.05 348.896 362.254 345.992 357.617C317.842 312.708 254.855 294.377 209.266 317.797C195.291 324.978 184.713 335.809 176.094 348.758C174.881 350.57 173.669 352.382 172.443 354.194Z" fill="#F8EDEE"/>
<path d="M213.849 224.075C213.729 237.171 204.963 245.977 192.134 245.844C179.318 245.711 170.165 236.238 170.245 223.196C170.325 210.646 179.611 201.374 192.173 201.294C204.75 201.228 213.969 210.913 213.849 224.075Z" fill="#F8EDEE"/>
<path d="M306.145 223.795C306.251 211.432 316.216 201.454 328.553 201.321C340.916 201.187 350.574 211.019 350.641 223.809C350.707 236.465 340.503 246.137 327.394 245.83C315.883 245.564 306.051 235.359 306.145 223.795Z" fill="#F8EDEE"/>
</svg>
